<?xml version="1.0" encoding="UTF-8"?>
<svg version="1.1" xmlns="http://www.w3.org/2000/svg" width="450" height="450">
<path d="M0 0 C148.5 0 297 0 450 0 C450 148.5 450 297 450 450 C301.5 450 153 450 0 450 C0 301.5 0 153 0 0 Z " fill="#C5F1F6" transform="translate(0,0)"/>
<path d="M0 0 C15.73047104 13.17958384 26.93940162 31.67979279 30.45703125 52.05859375 C31.76981361 70.59736377 31.56959941 87.98437798 23.45703125 105.05859375 C22.9760498 106.07373047 22.9760498 106.07373047 22.48535156 107.109375 C12.05829693 128.32487046 -5.7035326 143.78101368 -27.82421875 151.8046875 C-43.37887601 157.04948265 -60.33634853 157.81549148 -76.54296875 155.05859375 C-78.20392578 154.89617187 -78.20392578 154.89617187 -79.8984375 154.73046875 C-84.54256157 153.87431726 -88.54495271 152.1963514 -92.85546875 150.30859375 C-93.69779053 149.9437085 -94.5401123 149.57882324 -95.40795898 149.20288086 C-97.06129197 148.48193498 -98.71251413 147.75612416 -100.36132812 147.02490234 C-102.11851932 146.24659407 -103.88417146 145.48740315 -105.65234375 144.734375 C-123.27182273 136.73827387 -133.36187406 119.35280496 -140.16796875 102.0625 C-148.20343439 79.91053048 -147.21916982 51.7919746 -137.60546875 30.49609375 C-127.19609546 8.88011622 -107.41016354 -6.90566782 -84.9921875 -14.91015625 C-55.18971334 -23.82052225 -24.77246323 -19.05288401 0 0 Z " fill="#FEFE01" transform="translate(288.54296875,151.94140625)"/>
<path d="M0 0 C15.73047104 13.17958384 26.93940162 31.67979279 30.45703125 52.05859375 C31.76981361 70.59736377 31.56959941 87.98437798 23.45703125 105.05859375 C22.9760498 106.07373047 22.9760498 106.07373047 22.48535156 107.109375 C12.05829693 128.32487046 -5.7035326 143.78101368 -27.82421875 151.8046875 C-43.37887601 157.04948265 -60.33634853 157.81549148 -76.54296875 155.05859375 C-78.20392578 154.89617187 -78.20392578 154.89617187 -79.8984375 154.73046875 C-84.54256157 153.87431726 -88.54495271 152.1963514 -92.85546875 150.30859375 C-93.69779053 149.9437085 -94.5401123 149.57882324 -95.40795898 149.20288086 C-97.06129197 148.48193498 -98.71251413 147.75612416 -100.36132812 147.02490234 C-102.11851932 146.24659407 -103.88417146 145.48740315 -105.65234375 144.734375 C-123.27182273 136.73827387 -133.36187406 119.35280496 -140.16796875 102.0625 C-148.20343439 79.91053048 -147.21916982 51.7919746 -137.60546875 30.49609375 C-127.19609546 8.88011622 -107.41016354 -6.90566782 -84.9921875 -14.91015625 C-55.18971334 -23.82052225 -24.77246323 -19.05288401 0 0 Z M-114.54296875 10.05859375 C-116.41662391 12.48710816 -118.13184669 14.97346041 -119.82421875 17.53125 C-121.46529031 19.94437113 -123.2342324 22.13463802 -125.10546875 24.37109375 C-137.96398687 40.75486853 -139.94636164 61.91879538 -138.3046875 81.96875 C-135.06086842 103.16825449 -125.5621292 118.66211832 -109.40234375 132.41796875 C-107.54296875 134.05859375 -107.54296875 134.05859375 -105.81640625 136.015625 C-102.67795596 138.83591624 -99.2655941 140.3248905 -95.41796875 141.99609375 C-94.22796265 142.51333008 -94.22796265 142.51333008 -93.01391602 143.04101562 C-72.35499759 151.76353421 -51.37942294 154.80948925 -29.91796875 146.30859375 C-6.10234318 136.36776402 9.99306223 120.22141893 19.83203125 96.49609375 C27.14733664 77.75137247 26.50687382 55.55662447 19.20703125 36.93359375 C8.94581635 14.08044553 -6.75925391 -0.2439285 -30.16796875 -9.19140625 C-57.59983245 -18.52991304 -94.03802706 -10.84527677 -114.54296875 10.05859375 Z " fill="#E9CE0D" transform="translate(288.54296875,151.94140625)"/>
<path d="M0 0 C3.55800606 3.34254727 4.8581541 5.76861376 6.1875 10.5 C6.51105469 11.6240625 6.83460938 12.748125 7.16796875 13.90625 C7.44253906 14.9271875 7.71710938 15.948125 8 17 C8.29583984 18.00160156 8.29583984 18.00160156 8.59765625 19.0234375 C12.41056313 37.75480527 5.83180577 58.79877979 -4.34765625 74.38061523 C-13.66020855 87.972601 -27.26299893 97.7457476 -43 103 C-45.50782934 103.33379165 -47.46974228 103.28113975 -50 103 C-48.86465694 99.59397082 -48.26674154 99.23112671 -45.38671875 97.3203125 C-44.63898193 96.81056885 -43.89124512 96.3008252 -43.12084961 95.77563477 C-42.31784424 95.23092529 -41.51483887 94.68621582 -40.6875 94.125 C-17.73908738 78.00110792 -5.65906207 56.44595434 -0.45629883 29.1472168 C0.00646155 25.95543296 0.11361335 22.94989672 0.09765625 19.7265625 C0.09443359 18.57285156 0.09121094 17.41914063 0.08789062 16.23046875 C0.07951172 15.04066406 0.07113281 13.85085937 0.0625 12.625 C0.05798828 11.41199219 0.05347656 10.19898438 0.04882812 8.94921875 C0.03708354 5.96609493 0.0206584 2.98307321 0 0 Z " fill="#EACF08" transform="translate(294,187)"/>
<path d="M0 0 C0 0.99 0 1.98 0 3 C-3.69653932 5.8216291 -7.43125159 6.7723423 -11.92578125 7.75390625 C-12.59103317 7.90029037 -13.2562851 8.0466745 -13.94169617 8.19749451 C-15.35023064 8.50513005 -16.75975305 8.80827267 -18.17016602 9.10717773 C-20.2705601 9.55358628 -22.36669697 10.0167386 -24.46289062 10.48242188 C-48.34421695 15.69555738 -48.34421695 15.69555738 -59 15 C-59.66 14.34 -60.32 13.68 -61 13 C-60.44444444 8.44444444 -60.44444444 8.44444444 -59 7 C-56.04170613 6.71590497 -53.08790624 6.47526905 -50.125 6.25 C-40.1025194 5.41640198 -30.34816263 3.71595648 -20.50439453 1.67675781 C-13.56806933 0.28762398 -7.07239054 -0.30226913 0 0 Z " fill="#E8CF11" transform="translate(135,212)"/>
<path d="M0 0 C-0.34394791 6.33846869 -2.47098518 9.72747738 -6.375 14.625 C-6.91157227 15.31867676 -7.44814453 16.01235352 -8.00097656 16.72705078 C-12.33332866 22.28177233 -16.85163444 27.67576257 -21.44921875 33.01171875 C-24.53755779 36.62975759 -27.49930795 40.33695875 -30.44140625 44.07421875 C-32 46 -32 46 -34 48 C-36.625 48.125 -36.625 48.125 -39 48 C-39.6796875 45.73046875 -39.6796875 45.73046875 -40 43 C-38.8828125 41.11328125 -38.8828125 41.11328125 -37.125 39.3125 C-36.4753125 38.62414062 -35.825625 37.93578125 -35.15625 37.2265625 C-34.08890625 36.12441406 -34.08890625 36.12441406 -33 35 C-31.53481001 33.40209353 -30.07670587 31.79766672 -28.625 30.1875 C-27.48417969 28.92292969 -27.48417969 28.92292969 -26.3203125 27.6328125 C-22.41213363 23.19827957 -18.7121331 18.59870785 -15 14 C-13.3770375 11.99834625 -11.75208059 9.99830772 -10.125 8 C-9.40570313 7.113125 -8.68640625 6.22625 -7.9453125 5.3125 C-3.47635135 0 -3.47635135 0 0 0 Z " fill="#E9CE11" transform="translate(160,293)"/>
<path d="M0 0 C1.32 0.33 2.64 0.66 4 1 C4.77685483 4.44063937 5.12618661 7.6170327 5.12939453 11.14160156 C5.13254669 12.13903381 5.13569885 13.13646606 5.13894653 14.16412354 C5.1369223 15.22886902 5.13489807 16.2936145 5.1328125 17.390625 C5.13376923 18.49098083 5.13472595 19.59133667 5.13571167 20.72503662 C5.13639101 23.04488177 5.13455389 25.36472884 5.13037109 27.68457031 C5.12499895 31.25069391 5.13033489 34.81669271 5.13671875 38.3828125 C5.13605833 40.63541695 5.13477791 42.88802131 5.1328125 45.140625 C5.13483673 46.21346741 5.13686096 47.28630981 5.13894653 48.3916626 C5.13579437 49.37648621 5.13264221 50.36130981 5.12939453 51.37597656 C5.12820114 52.68239105 5.12820114 52.68239105 5.12698364 54.01519775 C5 56 5 56 4 57 C1.5 57.125 1.5 57.125 -1 57 C-2.59925894 55.40074106 -2.1352988 53.71413535 -2.14526367 51.49951172 C-2.15164352 50.54116425 -2.15802338 49.58281677 -2.16459656 48.59542847 C-2.16570938 47.55073395 -2.1668222 46.50603943 -2.16796875 45.4296875 C-2.17129715 44.36009796 -2.17462555 43.29050842 -2.17805481 42.18850708 C-2.18313096 39.91701692 -2.18546292 37.64551926 -2.18530273 35.37402344 C-2.18747759 31.91068018 -2.2055939 28.44766133 -2.22460938 24.984375 C-2.22754554 22.77864692 -2.22952884 20.57291733 -2.23046875 18.3671875 C-2.23765427 17.33463837 -2.24483978 16.30208923 -2.25224304 15.23825073 C-2.23499102 9.75832117 -1.82938948 5.17775681 0 0 Z " fill="#E3D437" transform="translate(233,315)"/>
<path d="M0 0 C3.01993733 -0.28936682 4.53543765 -0.32168751 7.0703125 1.43359375 C8.08738281 2.42552734 8.08738281 2.42552734 9.125 3.4375 C12.41674276 6.54425225 15.75925419 9.44534566 19.3125 12.25 C23.62974815 15.75014186 27.63664008 19.44973374 31.5625 23.375 C32.07530518 23.88708008 32.58811035 24.39916016 33.11645508 24.92675781 C38.95501214 30.85280967 38.95501214 30.85280967 39.125 35.1875 C39.08375 36.115625 39.0425 37.04375 39 38 C35.76217948 37.42368891 34.2032437 36.54971953 31.96875 34.15625 C31.1329541 33.28262817 31.1329541 33.28262817 30.28027344 32.39135742 C29.6927832 31.76720947 29.10529297 31.14306152 28.5 30.5 C23.25307984 25.07804522 17.96533702 20.51137076 11.84765625 16.08984375 C8.86857173 13.90354715 6.00726149 11.63836543 3.1875 9.25 C2.35605469 8.55390625 1.52460937 7.8578125 0.66796875 7.140625 C-1 5 -1 5 -0.76171875 2.234375 C-0.38466797 1.12835938 -0.38466797 1.12835938 0 0 Z " fill="#E9CE10" transform="translate(124,113)"/>
<path d="M0 0 C2.475 0.495 2.475 0.495 5 1 C5.73046875 2.73828125 5.73046875 2.73828125 6 5 C1.50112806 11.34207553 -5.37596787 15.8231606 -11.6015625 20.3203125 C-16.60734965 24.11439324 -21.03755477 28.60894452 -25.48071289 33.03564453 C-26.12516357 33.66325684 -26.76961426 34.29086914 -27.43359375 34.9375 C-28.00134521 35.50339844 -28.56909668 36.06929687 -29.15405273 36.65234375 C-31.39610318 38.28917994 -33.27525242 38.63074076 -36 39 C-35.49983555 34.53027639 -33.99216419 32.4307884 -30.9375 29.1875 C-30.12023437 28.31738281 -29.30296875 27.44726562 -28.4609375 26.55078125 C-27.24277344 25.28814453 -27.24277344 25.28814453 -26 24 C-25.33226562 23.29230469 -24.66453125 22.58460938 -23.9765625 21.85546875 C-19.0302479 16.73754732 -13.61462539 12.35980699 -8 8 C-4.82012547 5.52265589 -2.2712933 3.34716907 0 0 Z " fill="#E8CF12" transform="translate(342,111)"/>
<path d="M0 0 C4.28301446 0.29325144 6.15560262 1.80995618 8.94360352 4.99755859 C9.39533936 5.53461426 9.8470752 6.07166992 10.3125 6.625 C13.39480204 10.15929035 16.36693999 13.46061527 20.0625 16.375 C26.7108354 21.90839717 31.24746201 29.87119302 36 37 C35.625 39.1875 35.625 39.1875 35 41 C32.525 41.495 32.525 41.495 30 42 C28.97916667 40.54166667 27.95833333 39.08333333 26.9375 37.625 C26.29039062 36.7071875 25.64328125 35.789375 24.9765625 34.84375 C23.75802158 33.09059231 22.56041613 31.32239755 21.3984375 29.53125 C17.60244679 23.77181582 13.29849545 19.04969193 8.26293945 14.37353516 C4.60985694 10.90857116 2.232059 7.53337043 0 3 C0 2.01 0 1.02 0 0 Z " fill="#E9CE10" transform="translate(298,291)"/>
<path d="M0 0 C1.36511719 -0.01836914 1.36511719 -0.01836914 2.7578125 -0.03710938 C3.62664062 -0.03904297 4.49546875 -0.04097656 5.390625 -0.04296875 C6.17985352 -0.04707764 6.96908203 -0.05118652 7.78222656 -0.05541992 C9.75 0.1875 9.75 0.1875 11.75 2.1875 C11.375 4.8125 11.375 4.8125 10.75 7.1875 C-13.12920293 8.27845751 -13.12920293 8.27845751 -24.625 8.375 C-25.36024902 8.38789063 -26.09549805 8.40078125 -26.85302734 8.4140625 C-30.55523362 8.42113284 -32.0816406 8.2997396 -35.25 6.1875 C-35.25 4.8675 -35.25 3.5475 -35.25 2.1875 C-33.94804687 2.12691406 -32.64609375 2.06632813 -31.3046875 2.00390625 C-29.57811601 1.91945438 -27.851554 1.83480874 -26.125 1.75 C-25.2690625 1.71068359 -24.413125 1.67136719 -23.53125 1.63085938 C-20.05960051 1.4572769 -16.70033009 1.26669191 -13.2734375 0.6640625 C-8.85040867 -0.03310742 -4.47050237 0.00322082 0 0 Z " fill="#E8CF13" transform="translate(364.25,212.8125)"/>
<path d="M0 0 C2.625 0.375 2.625 0.375 5 1 C4.93941406 1.86753906 4.87882813 2.73507813 4.81640625 3.62890625 C4.33754698 11.04754143 3.96763359 18.45941658 3.74609375 25.890625 C3.72535294 26.58071152 3.70461212 27.27079803 3.6832428 27.98179626 C3.57951964 31.48258605 3.48255361 34.98344376 3.39282227 38.48461914 C3.35600342 39.78520264 3.31918457 41.08578613 3.28125 42.42578125 C3.25095703 43.59536377 3.22066406 44.76494629 3.18945312 45.9699707 C3.03245314 48.48095879 2.72711088 50.60487616 2 53 C0.68 52.67 -0.64 52.34 -2 52 C-2.05058526 44.91588378 -2.08568494 37.83181388 -2.10986328 30.74755859 C-2.11993954 28.33608256 -2.13360081 25.92461878 -2.15087891 23.51318359 C-2.1750559 20.05302915 -2.18646669 16.5930358 -2.1953125 13.1328125 C-2.20563507 12.04944611 -2.21595764 10.96607971 -2.22659302 9.84988403 C-2.22674408 8.8489975 -2.22689514 7.84811096 -2.22705078 6.81689453 C-2.231492 5.93309113 -2.23593323 5.04928772 -2.24050903 4.13870239 C-2 2 -2 2 0 0 Z " fill="#EACE0C" transform="translate(231,70)"/>
<path d="M0 0 C1.98 0.495 1.98 0.495 4 1 C3.67 19.15 3.34 37.3 3 56 C2.01 56 1.02 56 0 56 C-0.16780455 48.18560144 -0.32777196 40.37107121 -0.48217773 32.55639648 C-0.53569066 29.89555185 -0.59102682 27.23474325 -0.64819336 24.57397461 C-0.72984579 20.75903092 -0.80503326 16.9440075 -0.87890625 13.12890625 C-0.90594131 11.93100967 -0.93297638 10.7331131 -0.96083069 9.49891663 C-0.98092697 8.3978508 -1.00102325 7.29678497 -1.02172852 6.16235352 C-1.04171402 5.18750504 -1.06169952 4.21265656 -1.08229065 3.20826721 C-1 1 -1 1 0 0 Z " fill="#E9CE0E" transform="translate(233,315)"/>
<path d="M0 0 C1.67542976 0.28604898 3.34385343 0.61781233 5 1 C5 3.31 5 5.62 5 8 C4.34 7.34 3.68 6.68 3 6 C3 4.68 3 3.36 3 2 C-0.27773504 2.75150023 -0.27773504 2.75150023 -2 6 C-1.125 1.125 -1.125 1.125 0 0 Z " fill="#E5D22A" transform="translate(231,70)"/>
<path d="M0 0 C0 3 0 3 -1.53125 4.60546875 C-2.1809375 5.12753906 -2.830625 5.64960938 -3.5 6.1875 C-4.1496875 6.71730469 -4.799375 7.24710938 -5.46875 7.79296875 C-5.9740625 8.19128906 -6.479375 8.58960938 -7 9 C-7.66 8.67 -8.32 8.34 -9 8 C-6.03 5.36 -3.06 2.72 0 0 Z " fill="#C8EEDF" transform="translate(323,137)"/>
</svg>
